<?xml version="1.0" encoding="UTF-8" standalone="no"?>
<svg width="57px" height="24px" viewBox="0 0 57 24" version="1.1" xmlns="http://www.w3.org/2000/svg" xmlns:xlink="http://www.w3.org/1999/xlink">
    <!-- Generator: sketchtool 3.6.1 (26313) - http://www.bohemiancoding.com/sketch -->
    <title>09CE9375-003D-41CD-BE00-8FA20F835FF9</title>
    <desc>Created with sketchtool.</desc>
    <defs>
        <path id="path-1" d="M9.76143596,0 L0.00976525038,0 L0.00976525038,11.7375 L9.76143596,11.7375 L9.76143596,0 L9.76143596,0 Z"></path>
        <path id="path-3" d="M9.80138786,0 L0.0498036419,0 L0.0498036419,11.7375 L9.80138786,11.7375 L9.80138786,0 L9.80138786,0 Z"></path>
    </defs>
    <g id="Page-1" stroke="none" stroke-width="1" fill="none" fill-rule="evenodd">
        <g id="01-games-8-players" transform="translate(-577.000000, -15.000000)">
            <g id="ic_change-player-copy-2" transform="translate(577.000000, 15.000000)">
                <g id="Group-3" transform="translate(4.324734, 0.000000)">
                    <mask id="mask-2" fill="white">
                        <use xlink:href="#path-1"></use>
                    </mask>
                    <g id="Clip-2"></g>
                    <path d="M4.88555736,11.7375 C7.57805053,11.7375 9.76143596,9.11018571 9.76143596,5.86872857 C9.76143596,2.6277 9.04448149,-4.28571429e-05 4.88555736,-4.28571429e-05 C0.726373748,-4.28571429e-05 0.00976525038,2.6277 0.00976525038,5.86872857 C0.00976525038,9.11018571 2.1928047,11.7375 4.88555736,11.7375" id="Fill-1" fill="#FFFFFF" mask="url(#mask-2)"></path>
                </g>
                <path id="Fill-4" fill="#1D1C1B" d="M0.00609256425,21.0968274 C9.25642495e-05,20.12358 -0.00390743575,20.8232204 0.00609256425,21.0968274"></path>
                <path d="M18.4088376,20.4616029 C18.3186237,14.8151743 17.5743369,13.2063171 11.8802185,12.18786 C11.8802185,12.18786 11.0784127,13.1999743 9.21030046,13.1999743 C7.34192868,13.1999743 6.54012291,12.18786 6.54012291,12.18786 C0.908194234,13.1953457 0.118584219,14.7803743 0.0148770865,20.2780886 C0.00640060698,20.7271457 0.0023353566,20.7505457 0.00103793627,20.6983457 C0.00138391502,20.79606 0.00172989378,20.9769171 0.00172989378,21.29166 C0.00172989378,21.29166 1.35718816,23.9999743 9.21030046,23.9999743 C17.0630668,23.9999743 18.4186115,21.29166 18.4186115,21.29166 C18.4186115,21.0893743 18.4189575,20.9488029 18.4189575,20.8529743 C18.4176601,20.8851171 18.4145463,20.8225457 18.4088376,20.4616029" id="Fill-6" fill="#FFFFFF"></path>
                <g id="Group-10" transform="translate(42.814871, 0.000000)">
                    <mask id="mask-4" fill="white">
                        <use xlink:href="#path-3"></use>
                    </mask>
                    <g id="Clip-9"></g>
                    <path d="M4.92559575,11.7375 C7.61808892,11.7375 9.80138786,9.11018571 9.80138786,5.86872857 C9.80138786,2.6277 9.08443338,-4.28571429e-05 4.92559575,-4.28571429e-05 C0.76641214,-4.28571429e-05 0.0498036419,2.6277 0.0498036419,5.86872857 C0.0498036419,9.11018571 2.2327566,11.7375 4.92559575,11.7375" id="Fill-8" fill="#FFFFFF" mask="url(#mask-4)"></path>
                </g>
                <path id="Fill-11" fill="#1D1C1B" d="M38.536181,21.0968274 C38.530181,20.12358 38.526181,20.8232204 38.536181,21.0968274"></path>
                <path d="M56.9389693,20.4616029 C56.8487554,14.8151743 56.1044686,13.2063171 50.4103502,12.18786 C50.4103502,12.18786 49.6085445,13.1999743 47.7404322,13.1999743 C45.8720604,13.1999743 45.0702546,12.18786 45.0702546,12.18786 C39.4383259,13.1953457 38.6487159,14.7803743 38.5450088,20.2780886 C38.5365323,20.7271457 38.5324671,20.7505457 38.5311697,20.6983457 C38.5315156,20.79606 38.5317751,20.9769171 38.5317751,21.29166 C38.5317751,21.29166 39.8873199,23.9999743 47.7404322,23.9999743 C55.5931985,23.9999743 56.9487432,21.29166 56.9487432,21.29166 C56.9487432,21.0893743 56.9490892,20.9488029 56.9490892,20.8529743 C56.9477918,20.8851171 56.944678,20.8225457 56.9389693,20.4616029" id="Fill-13" fill="#FFFFFF"></path>
                <path d="M34.4003476,10.4338714 L29.6542976,5.8569 L29.6542976,8.28904286 L22.5487589,8.28904286 L22.5487589,12.5787 L29.6542976,12.5787 L29.6542976,15.0108429 L34.4003476,10.4338714 Z" id="Fill-15" fill="#FFFFFF"></path>
            </g>
        </g>
    </g>
</svg>