<?xml version="1.0" encoding="utf-8"?>
<!-- Generator: Adobe Illustrator 15.0.0, SVG Export Plug-In . SVG Version: 6.00 Build 0)  -->
<!DOCTYPE svg PUBLIC "-//W3C//DTD SVG 1.1//EN" "http://www.w3.org/Graphics/SVG/1.1/DTD/svg11.dtd">
<svg version="1.1" id="Layer_2" xmlns="http://www.w3.org/2000/svg" xmlns:xlink="http://www.w3.org/1999/xlink" x="0px" y="0px"
	 width="206.383px" height="201.021px" viewBox="0 0 206.383 201.021" enable-background="new 0 0 206.383 201.021"
	 xml:space="preserve">
<path fill="none" stroke="#E30613" stroke-miterlimit="10" d="M-9.992,210.376"/>
<path fill="#FFFFFF" d="M113.049,70.751l62.125-54.625c0,0-5.25-14-26.256-16.379c-24.129-2.732-41.083,17.697-42.994,37.129
	C104.424,52.126,109.299,66.251,113.049,70.751z"/>
<path fill="none" stroke="#E30613" stroke-miterlimit="10" d="M-6.742,210.376"/>
<path fill="#FFFFFF" d="M169.508,25.126l-97.75,87c-2.25,1.75-3,6.75-0.836,8.75l12.959,13.506
	c3.375,2.832,8.377,0.978,10.766-1.481l88.111-97.57C187.8,28.501,176.508,18.667,169.508,25.126z"/>
<path fill="#FFFFFF" d="M74.833,126.782"/>
<path fill="#FFFFFF" d="M69.382,123.584l12.412,13.274c2.589,2.893,2.217,5.797,0.271,7.821c0,0-16.89,17.722-24.799,23.193
	c-6.508,4.503-15.443,5.021-19.651,0.57c-4.382-4.635-4.857-12.442-2.235-17.326c5.067-9.437,24.292-27.084,24.292-27.084
	C62.508,121.126,66.758,121.126,69.382,123.584z"/>
<path fill="#FFFFFF" d="M31.383,160.251c0.25,4.375,2.082,14.25,14.973,13.625L3.25,201.021L31.383,160.251z"/>
<path fill="#FFFFFF" d="M135.132,93.441l54.625-62.125c0,0,14,5.25,16.379,26.256c2.732,24.129-17.697,41.083-37.129,42.994
	C153.758,102.065,139.632,97.19,135.132,93.441z"/>
</svg>
