<?xml version="1.0" encoding="utf-8"?>
<!-- Generator: Adobe Illustrator 19.0.0, SVG Export Plug-In . SVG Version: 6.00 Build 0)  -->
<svg version="1.1" id="Layer_1" xmlns="http://www.w3.org/2000/svg" xmlns:xlink="http://www.w3.org/1999/xlink" x="0px" y="0px"
	 viewBox="0 0 259.3 209.3" style="enable-background:new 0 0 259.3 209.3;" xml:space="preserve">
<style type="text/css">
	.st0{fill:#BC6228;}
	.st1{fill:#BE7F2C;}
	.st2{fill:#FFFFFF;}
	.st3{fill:#CD812E;}
	.st4{opacity:0.1;fill:#1D1D1B;enable-background:new    ;}
	.st5{fill:#E6E6E5;}
	.st6{fill:#1C97D4;}
	.st7{fill:#C2C1C1;}
	.st8{fill:none;stroke:#989798;stroke-width:0.25;stroke-miterlimit:10;}
	.st9{fill:#CECCCC;}
	.st10{fill:#D1D2D2;}
	.st11{fill:#098CBC;}
	.st12{fill:#4BC9F5;}
	.st13{fill:#46B973;}
	.st14{fill:#079754;}
	.st15{fill:#9A61A8;}
	.st16{fill:#723895;}
	.st17{fill:#FFDA4C;}
	.st18{fill:#EFC652;}
	.st19{fill:#F9BE3B;}
	.st20{fill:#E5AD37;}
	.st21{fill:#E5AB33;}
	.st22{fill:#F0EFEF;}
	.st23{fill:#E8AE37;}
	.st24{fill:#C59D44;}
	.st25{fill:#CD952E;}
	.st26{fill:#CB9332;}
</style>
<g>
	<g>
		<rect x="114.2" class="st0" width="10" height="172.1"/>
		<circle class="st0" cx="124.2" cy="86" r="86"/>
	</g>
	<ellipse class="st1" cx="114.5" cy="86" rx="83" ry="86"/>
	<ellipse class="st1" cx="114.5" cy="86" rx="83" ry="86"/>
	<ellipse class="st2" cx="114.5" cy="86" rx="65.3" ry="67.7"/>
	<ellipse class="st3" cx="114.5" cy="86" rx="47.7" ry="49.4"/>
	<circle class="st2" cx="111.4" cy="86" r="31.1"/>
	<circle class="st3" cx="111.4" cy="86" r="12.8"/>
	<circle class="st3" cx="110.8" cy="87.7" r="1.3"/>
	<circle class="st3" cx="110.8" cy="85.4" r="1.8"/>
	<circle class="st3" cx="110.8" cy="82" r="1.3"/>
	<path class="st4" d="M71.1,159.4c5.8,3.7,12.1,6.7,18.7,8.8L110.9,89L71.1,159.4z"/>
	<path class="st4" d="M53.9,144.9c3.8,4.2,8,8,12.5,11.3l42.7-66.9L53.9,144.9z"/>
	<path class="st4" d="M42.4,128.8c1.9,3.5,4.1,6.8,6.5,10l63-56.5L42.4,128.8z"/>
	<g>
		<polygon class="st5" points="93,83 112,85.5 93.2,87.7 		"/>
		<path class="st6" d="M93.7,82.7L70.2,81v8.6l23.5-1.3c0.7,0,1.2-1.2,1.2-2.8S94.4,82.7,93.7,82.7z"/>
		<ellipse class="st5" cx="87.1" cy="85.1" rx="3.1" ry="4.2"/>
		<ellipse class="st7" cx="70.2" cy="85.2" rx="3.7" ry="5.9"/>
		<polyline class="st5" points="70.2,79.3 87.1,81 87.1,89.3 70.2,91.1 70.2,79.3 		"/>
		<g>
			<path class="st8" d="M74.1,80.3c0.8,1.3,1.3,3.1,1.3,5.1c0,1.8-0.4,3.5-1.1,4.7"/>
			<path class="st8" d="M76,80.5c0.8,1.2,1.3,3,1.3,4.9c0,1.7-0.4,3.3-1,4.5"/>
			<path class="st8" d="M77.8,80.7c0.8,1.2,1.3,2.8,1.3,4.7c0,1.6-0.4,3.1-1,4.2"/>
			<path class="st8" d="M79.7,80.9c0.8,1.1,1.3,2.7,1.3,4.5c0,1.5-0.4,2.9-0.9,4"/>
			<path class="st8" d="M81.5,81.1c0.8,1,1.4,2.6,1.4,4.3c0,1.4-0.3,2.7-0.9,3.7"/>
			<path class="st8" d="M83.4,81.2c0.8,0.9,1.4,2.4,1.4,4.1c0,1.3-0.3,2.5-0.8,3.5"/>
			<path class="st8" d="M85.2,81.4c0.8,0.9,1.4,2.3,1.4,4c0,1.2-0.3,2.3-0.8,3.2"/>
			<path class="st8" d="M87.1,81.6c0.9,0.8,1.4,2.2,1.4,3.8c0,1.1-0.3,2.2-0.7,3"/>
		</g>
		<ellipse class="st9" cx="70.2" cy="85.2" rx="3.7" ry="5.9"/>
		<rect x="13.1" y="77.8" class="st10" width="0.2" height="14.7"/>
		<polygon class="st11" points="55.9,85.2 37.6,74.9 -1.2,66.4 13,85.1 55.8,85.3 		"/>
		<polygon class="st6" points="13,85.1 13.1,85.2 0,104.7 43.8,95.6 55.8,85.3 		"/>
		<polygon class="st6" points="55.9,85.2 46.7,72.2 25.5,66.5 13.1,85.1 55.8,85.3 		"/>
		<polygon class="st11" points="13.1,85.1 13.1,85.2 26.3,104.8 47,96.4 55.8,85.3 		"/>
		<polygon class="st12" points="47.4,85.1 52.5,80.4 56,85.2 52,90.1 		"/>
		<path class="st10" d="M62.7,97.1"/>
		<path class="st6" d="M70.2,80.9l-17.7-0.6L47,85.2l5.1,4.8l18.2-0.6c0.9,0,2.1-1.7,2.1-4.3C72.3,82.6,71.1,80.9,70.2,80.9z"/>
	</g>
	<g>
		<polygon class="st5" points="94.2,94.6 111.8,87.2 96.6,98.6 		"/>
		<path class="st13" d="M94.6,93.9l-21.2,10.3l4.3,7.4l19.7-12.9c0.6-0.3,0.4-1.7-0.3-3S95.1,93.6,94.6,93.9z"/>
		
			<ellipse transform="matrix(-0.5007 -0.8656 0.8656 -0.5007 49.2025 227.0075)" class="st5" cx="90.1" cy="99.3" rx="4.2" ry="3.1"/>
		
			<ellipse transform="matrix(-0.5007 -0.8656 0.8656 -0.5007 19.9083 227.284)" class="st7" cx="75.5" cy="107.9" rx="5.9" ry="3.7"/>
		<polyline class="st5" points="72.5,102.8 88,95.8 92.2,102.9 78.4,113 72.5,102.8 		"/>
		<g>
			<path class="st8" d="M76.4,101.7c1.3,0.7,2.7,2,3.6,3.8c0.9,1.6,1.4,3.2,1.4,4.6"/>
			<path class="st8" d="M78.1,100.9c1.3,0.7,2.6,1.9,3.6,3.6c0.9,1.5,1.3,3,1.4,4.4"/>
			<path class="st8" d="M79.8,100.1c1.3,0.6,2.6,1.8,3.5,3.4c0.8,1.4,1.2,2.9,1.3,4.1"/>
			<path class="st8" d="M81.5,99.4c1.2,0.5,2.5,1.7,3.4,3.2c0.8,1.3,1.1,2.7,1.2,3.9"/>
			<path class="st8" d="M83.2,98.6c1.2,0.5,2.5,1.5,3.3,3.1c0.7,1.2,1.1,2.5,1.1,3.7"/>
			<path class="st8" d="M84.9,97.9c1.2,0.4,2.4,1.4,3.3,2.9c0.7,1.1,1,2.3,1,3.4"/>
			<path class="st8" d="M86.6,97.1c1.2,0.3,2.4,1.3,3.2,2.7c0.6,1.1,0.9,2.2,0.9,3.2"/>
			<path class="st8" d="M88.3,96.3c1.1,0.2,2.3,1.2,3.1,2.5c0.6,1,0.8,2,0.8,2.9"/>
		</g>
		
			<ellipse transform="matrix(-0.5007 -0.8656 0.8656 -0.5007 19.9083 227.284)" class="st9" cx="75.5" cy="107.9" rx="5.9" ry="3.7"/>
		
			<rect x="26.1" y="129.1" transform="matrix(0.8656 -0.5007 0.5007 0.8656 -64.8038 31.4602)" class="st10" width="0.2" height="14.7"/>
		<polygon class="st14" points="63.1,115 42.1,115.3 4.2,127.4 26,136.4 63.1,115.1 		"/>
		<polygon class="st13" points="26,136.4 26,136.5 24.5,159.9 57.8,130.1 63.1,115.1 		"/>
		<polygon class="st13" points="63.1,115 48.6,108.4 27.4,114.1 26,136.4 63.1,115.1 		"/>
		<polygon class="st14" points="26,136.4 26,136.5 47.3,146.8 61,129.2 63.1,115.1 		"/>
		<polygon class="st12" points="55.7,119.2 57.7,112.6 63.2,115 62.2,121.2 		"/>
		<path class="st10" d="M75,121.9"/>
		<path class="st13" d="M73.4,104.2l-15.6,8.4l-2.3,7l6.8,1.7l15.5-9.6c0.7-0.4,1-2.5-0.3-4.8C76,104.6,74.1,103.7,73.4,104.2z"/>
	</g>
	<g>
		<polygon class="st5" points="96.2,71.8 112,82.5 94.2,76.1 		"/>
		<path class="st15" d="M96.9,71.8L76.7,59.7l-3.8,7.7l21.6,9.4c0.6,0.3,1.6-0.6,2.3-1.9S97.5,72.1,96.9,71.8z"/>
		<ellipse transform="matrix(0.4476 -0.8942 0.8942 0.4476 -13.8156 119.6109)" class="st5" cx="89.9" cy="71" rx="4.2" ry="3.1"/>
		
			<ellipse transform="matrix(0.4476 -0.8942 0.8942 0.4476 -15.4782 101.9714)" class="st7" cx="74.8" cy="63.5" rx="5.9" ry="3.7"/>
		<polyline class="st5" points="77.4,58.3 91.8,67.3 88.1,74.8 72.1,68.8 77.4,58.3 		"/>
		<g>
			<path class="st8" d="M80.5,60.9c0.1,1.5-0.2,3.3-1.1,5.1c-0.8,1.6-1.9,2.9-3.1,3.7"/>
			<path class="st8" d="M82.1,61.9c0.2,1.5-0.2,3.2-1,5c-0.8,1.5-1.8,2.8-2.9,3.5"/>
			<path class="st8" d="M83.6,62.9c0.2,1.4-0.1,3.1-0.9,4.8C82,69.1,81,70.3,79.9,71"/>
			<path class="st8" d="M85.2,63.9c0.2,1.3,0,3-0.8,4.6c-0.7,1.4-1.6,2.4-2.6,3.1"/>
			<path class="st8" d="M86.7,64.9c0.3,1.3,0.1,2.9-0.7,4.5c-0.6,1.3-1.5,2.3-2.5,2.9"/>
			<path class="st8" d="M88.3,65.9c0.3,1.2,0.1,2.8-0.6,4.3c-0.6,1.2-1.4,2.1-2.3,2.7"/>
			<path class="st8" d="M89.9,66.9c0.4,1.1,0.2,2.7-0.5,4.2c-0.5,1.1-1.3,2-2.1,2.5"/>
			<path class="st8" d="M91.4,67.9c0.4,1.1,0.3,2.6-0.4,4c-0.5,1-1.2,1.8-2,2.3"/>
		</g>
		
			<ellipse transform="matrix(0.4476 -0.8942 0.8942 0.4476 -15.4782 101.9714)" class="st9" cx="74.8" cy="63.5" rx="5.9" ry="3.7"/>
		
			<rect x="23.8" y="30.7" transform="matrix(0.8942 0.4476 -0.4476 0.8942 19.5529 -6.6626)" class="st10" width="0.2" height="14.7"/>
		<polygon class="st16" points="62,57.1 50.2,39.8 19.3,14.7 23.7,37.9 61.9,57.1 		"/>
		<polygon class="st15" points="23.7,37.9 23.7,37.9 3.3,49.5 46.5,61 61.9,57.1 		"/>
		<polygon class="st15" points="62,57.1 59.6,41.3 43.1,26.8 23.8,37.9 61.9,57.1 		"/>
		<polygon class="st16" points="23.8,37.9 23.7,37.9 26.7,61.4 49,63.2 61.9,57.1 		"/>
		<polygon class="st12" points="54.5,53.2 61.1,51.3 62.1,57.2 56.3,59.8 		"/>
		<path class="st10" d="M62.7,70.8"/>
		<path class="st15" d="M76.7,59.7l-15.6-8.5L54,53.1l2.4,6.6l16.5,7.6c0.8,0.4,2.6-0.6,3.8-2.9S77.5,60.1,76.7,59.7z"/>
	</g>
</g>
<g>
	<g>
		<g>
			<path class="st17" d="M197.9,147.9c0,6.2-2.3,20.2-21.8,33.8h27.7v-33.8H197.9z"/>
			<path class="st18" d="M209.7,147.9h-5.9v33.8h27.7C211.9,168,209.7,154,209.7,147.9z"/>
		</g>
		<g>
			<path class="st19" d="M178,175.1c-0.1,0-0.1,0.1-0.1,0.1v7.2c0,0.1,0.1,0.1,0.1,0.1h25.8v-7.4H178z"/>
			<path class="st20" d="M229.5,175.1h-25.8v7.4h25.8l0.1-7.3C229.6,175.1,229.5,175.1,229.5,175.1z"/>
		</g>
		<g>
			<rect x="174.5" y="180.3" class="st17" width="29.2" height="25.8"/>
			<rect x="203.7" y="180.3" class="st18" width="29.2" height="25.8"/>
		</g>
		<g>
			<path class="st19" d="M182.4,170.3c-0.1,0-0.1,0.1-0.1,0.1v7.2c0,0.1,0.1,0.1,0.1,0.1h21.3v-7.4H182.4z"/>
			<path class="st20" d="M225.1,177.7C225.1,177.7,225.1,177.7,225.1,177.7l0.1-7.3c0-0.1-0.1-0.1-0.1-0.1h-21.4v7.4L225.1,177.7
				C225.1,177.7,225.1,177.7,225.1,177.7z"/>
		</g>
		<g>
			<g>
				<path class="st19" d="M188.6,136.6c-17.3-4-29.8-15.5-36.1-33.1c-4.7-13.1-4.3-24.9-4.3-25.4l0.1-2.9h23.4v6h-17.5
					c0.2,4.1,0.9,12.1,3.9,20.4c5.7,15.8,16.3,25.6,31.7,29.1L188.6,136.6z"/>
			</g>
			<g>
				<path class="st19" d="M219.1,136.6l-1.4-5.8c31.3-7.3,35.2-39.7,35.6-49.6h-17.5v-6h23.4l0.1,2.9c0,0.5,0.4,12.3-4.3,25.4
					C248.9,121.1,236.4,132.6,219.1,136.6z"/>
			</g>
		</g>
		<g>
			<path class="st17" d="M203.7,145c21.8,0,39.6-33.4,41.6-76h-83.1C164.1,111.6,182,145,203.7,145z"/>
		</g>
		<g>
			<path class="st19" d="M173.2,204.7c-1.3,0-2.3,1-2.3,2.3s1,2.3,2.3,2.3h30.5v-4.6H173.2z"/>
			<path class="st20" d="M234.2,204.7h-30.5v4.6h30.5c1.3,0,2.3-1.1,2.3-2.3C236.5,205.7,235.5,204.7,234.2,204.7z"/>
		</g>
		<g>
			<path class="st19" d="M182.9,185.3c-0.7,0-1.3,0.6-1.3,1.3v13.2c0,0.7,0.6,1.3,1.3,1.3h20.8v-15.8H182.9z"/>
			<path class="st21" d="M224.6,185.3h-20.9v15.8h20.9c0.7,0,1.3-0.6,1.3-1.3v-13.2C225.9,185.9,225.3,185.3,224.6,185.3z"/>
		</g>
		<g>
			<rect x="187.2" y="188.5" class="st2" width="16.6" height="1.8"/>
			<rect x="203.7" y="188.5" class="st22" width="16.6" height="1.8"/>
			<rect x="187.2" y="192.3" class="st2" width="16.6" height="1.8"/>
			<rect x="203.7" y="192.3" class="st22" width="16.6" height="1.8"/>
			<rect x="203.7" y="196.1" class="st22" width="16.6" height="1.8"/>
			<rect x="187.2" y="196.1" class="st2" width="16.6" height="1.8"/>
		</g>
		<g>
			<path class="st19" d="M192.5,145c0,6.2,5,11.2,11.2,11.2v-22.4C197.6,133.8,192.5,138.8,192.5,145z"/>
			<path class="st20" d="M203.7,133.8v22.4c6.2,0,11.2-5,11.2-11.2C214.9,138.8,209.9,133.8,203.7,133.8z"/>
		</g>
		<path class="st23" d="M192.9,142.1c-0.1,0.3-0.1,0.5-0.2,0.8c3.5,1.9,7.2,3,11.1,3V145C199.9,145,196.4,144,192.9,142.1z"/>
		<path class="st24" d="M214.7,142.1c-3.5,1.8-7.1,2.9-10.9,2.9v0.9c3.9,0,7.5-1.1,11.1-3C214.7,142.6,214.7,142.4,214.7,142.1z"/>
		<g>
			<path class="st17" d="M162.2,69c1.9,42.6,19.8,76,41.5,76c0,0,0,0,0,0V69H162.2z"/>
			<path class="st18" d="M245.3,69h-41.6v76C225.5,145,243.3,111.6,245.3,69z"/>
		</g>
		<path class="st23" d="M162.2,69c0,0.6,0.1,1.2,0.1,1.8h41.4V69H162.2z"/>
		<path class="st25" d="M245.3,69h-41.6v1.8h41.5C245.2,70.2,245.3,69.6,245.3,69z"/>
		<g>
			<path class="st19" d="M158.7,59.5c-2.2,0-3.9,1.8-3.9,3.9v1.7c0,2.2,1.8,3.9,3.9,3.9h45.1v-9.5H158.7z"/>
			<path class="st20" d="M248.9,59.5h-45.1V69h45.1c2.1,0,3.8-1.7,3.9-3.9v-1.7C252.7,61.2,250.9,59.5,248.9,59.5z"/>
		</g>
	</g>
	<rect x="203.7" y="174" class="st26" width="21.4" height="1.1"/>
	<rect x="203.7" y="179.2" class="st26" width="25.8" height="1.1"/>
	<rect x="182.3" y="174" class="st26" width="21.4" height="1.1"/>
	<rect x="177.9" y="179.2" class="st26" width="25.8" height="1.1"/>
</g>
</svg>
