<?xml version="1.0" encoding="utf-8"?>
<!-- Generator: Adobe Illustrator 19.0.0, SVG Export Plug-In . SVG Version: 6.00 Build 0)  -->
<svg version="1.1" id="Layer_1" xmlns="http://www.w3.org/2000/svg" xmlns:xlink="http://www.w3.org/1999/xlink" x="0px" y="0px"
	 viewBox="0 0 165.1 78.7" style="enable-background:new 0 0 165.1 78.7;" xml:space="preserve">
<style type="text/css">
	.st0{fill:#BE7F2E;}
</style>
<g>
	<path class="st0" d="M20.6,15.6v9.9c-1,0.6-2.1,1-3.3,1.3c-1.2,0.3-2.5,0.5-3.8,0.5c-2.1,0-3.9-0.3-5.6-1c-1.7-0.7-3.1-1.6-4.2-2.8
		c-1.2-1.2-2.1-2.6-2.7-4.1C0.3,17.9,0,16.2,0,14.3c0-1.9,0.4-3.6,1.1-5.3C1.8,7.4,2.8,6,4,4.8c1.2-1.2,2.7-2.2,4.3-2.8
		c1.6-0.7,3.4-1,5.3-1c1.3,0,2.5,0.2,3.7,0.5c1.2,0.3,2.3,0.8,3.4,1.4L19.9,4c-0.9-0.5-1.9-0.9-3-1.2c-1.1-0.3-2.2-0.4-3.3-0.4
		c-1.6,0-3.2,0.3-4.6,0.9C7.5,3.9,6.2,4.8,5.1,5.8C4,6.9,3.1,8.2,2.5,9.6c-0.6,1.5-1,3-1,4.6c0,1.6,0.3,3.1,0.8,4.5
		c0.6,1.4,1.4,2.7,2.4,3.7c1,1.1,2.3,1.9,3.7,2.5c1.5,0.6,3.1,0.9,4.9,0.9c1,0,2-0.1,3-0.3c1-0.2,1.9-0.6,2.8-1V17h-6.1v-1.3H20.6z"
		/>
	<path class="st0" d="M28.1,14.2c0-1.8,0.4-3.5,1.1-5.1c0.7-1.6,1.7-3,2.9-4.2c1.2-1.2,2.6-2.2,4.2-2.9c1.6-0.7,3.4-1,5.2-1
		c1.9,0,3.6,0.3,5.3,1c1.6,0.7,3.1,1.6,4.3,2.9C52.3,6,53.2,7.4,54,9c0.7,1.6,1.1,3.3,1.1,5.1c0,1.8-0.4,3.5-1.1,5.1
		c-0.7,1.6-1.7,3-2.9,4.2c-1.2,1.2-2.7,2.1-4.3,2.8c-1.6,0.7-3.4,1-5.3,1c-1.9,0-3.6-0.3-5.2-1c-1.6-0.7-3-1.6-4.2-2.8
		c-1.2-1.2-2.2-2.6-2.9-4.2C28.4,17.7,28.1,16,28.1,14.2z M29.6,14.2c0,1.6,0.3,3.1,0.9,4.6c0.6,1.4,1.5,2.7,2.6,3.7
		c1.1,1.1,2.3,1.9,3.8,2.5c1.4,0.6,3,0.9,4.6,0.9c1.6,0,3.2-0.3,4.7-0.9c1.5-0.6,2.7-1.5,3.8-2.5c1.1-1.1,2-2.3,2.6-3.7
		c0.6-1.4,0.9-3,0.9-4.6c0-1.6-0.3-3.1-0.9-4.6C51.9,8.2,51,6.9,50,5.8c-1.1-1.1-2.3-1.9-3.8-2.5c-1.5-0.6-3-0.9-4.6-0.9
		c-1.6,0-3.2,0.3-4.6,0.9c-1.5,0.6-2.7,1.5-3.8,2.5c-1.1,1.1-1.9,2.3-2.6,3.8C29.9,11,29.6,12.6,29.6,14.2z"/>
	<path class="st0" d="M64,27.1V1.2h1.6v24.4h14.6v1.5H64z"/>
	<path class="st0" d="M87.5,1.2h5.7c2.7,0,4.9,0.4,6.7,1.2c1.8,0.8,3.3,1.8,4.5,3.1c1.2,1.3,2,2.7,2.5,4.2c0.5,1.6,0.8,3.1,0.8,4.6
		c0,2-0.4,3.8-1.1,5.3c-0.7,1.6-1.7,2.9-2.9,4c-1.2,1.1-2.6,2-4.2,2.6c-1.6,0.6-3.3,0.9-5.1,0.9h-7V1.2z M94.5,25.6
		c1.6,0,3.1-0.3,4.6-0.8c1.4-0.5,2.7-1.3,3.7-2.3c1.1-1,1.9-2.2,2.5-3.6c0.6-1.4,0.9-3,0.9-4.8c0-1.4-0.3-2.9-0.8-4.2
		c-0.5-1.4-1.3-2.6-2.3-3.7c-1-1.1-2.3-1.9-3.9-2.6c-1.6-0.6-3.4-1-5.5-1H89v22.9H94.5z"/>
	<path class="st0" d="M116.7,27.1V1.2h16.1v1.4h-14.6v10.8h13.1v1.4h-13.1v10.9h15.1v1.4H116.7z"/>
	<path class="st0" d="M164.3,1.2v27.1c-1.4-1.7-3-3.6-4.8-5.7c-1.8-2.1-3.5-4.1-5.3-6.3c-1.8-2.1-3.5-4.2-5.2-6.2
		c-1.7-2-3.2-3.9-4.5-5.6l-0.7-1l0.1,1.2v22.4h-1.6V0c1.4,1.8,3,3.7,4.7,5.8c1.7,2.1,3.5,4.1,5.3,6.2c1.8,2.1,3.5,4.2,5.2,6.2
		c1.7,2,3.2,3.9,4.6,5.6l0.7,1l-0.1-1.2V1.2H164.3z"/>
</g>
<path class="st0" d="M33,51.4c-0.8-2.5-2.1-4.7-3.9-6.7c-1.8-1.9-4.1-3.5-7-4.8c-2.8-1.2-6.3-1.8-10.3-1.8h-11v40.1h13
	c2.7,0,5.4-0.5,7.8-1.3c2.5-0.9,4.7-2.2,6.5-3.9c1.9-1.7,3.4-3.8,4.5-6.2c1.1-2.4,1.7-5.1,1.7-8.1C34.1,56.4,33.7,53.9,33,51.4z
	 M24.7,63.5c-0.6,1.4-1.5,2.7-2.7,3.7c-1.1,1-2.5,1.8-4.1,2.3c-1.6,0.5-3.4,0.8-5.3,0.8H9.2V46.3h4.2c1.3,0,2.7,0.2,4.2,0.7
	c1.4,0.4,2.8,1.1,3.9,2.1c1.2,0.9,2.1,2.2,2.9,3.7c0.8,1.5,1.1,3.4,1.1,5.6C25.6,60.3,25.3,62,24.7,63.5z"/>
<path class="st0" d="M104.1,72.7c-0.8-1.3-1.6-2.5-2.4-3.7c-0.8-1.2-1.5-2.4-2.3-3.5l-1.8-2.8c0.8-0.5,1.4-1.1,2-1.8
	c0.8-0.9,1.5-1.9,2-2.9c0.5-1,0.9-2.1,1.1-3.3c0.2-1.1,0.3-2.2,0.3-3.3c0-2-0.4-3.9-1.1-5.6c-0.7-1.7-1.8-3.1-3.1-4.2
	c-1.3-1.1-2.9-2-4.8-2.6c-1.8-0.6-3.9-0.9-6.1-0.9H76v40.1h8.5V65.2h4.5c1.2,1.8,2.5,3.7,3.8,5.8c1.3,2,2.7,4.1,4.1,6.3l0.7,1.1
	h10.2l-1-1.5C105.8,75.3,104.9,73.9,104.1,72.7z M94.4,49.9c0.2,0.7,0.3,1.3,0.3,1.8c0,0.5-0.1,1.1-0.3,1.8
	c-0.2,0.6-0.5,1.2-0.9,1.7c-0.4,0.5-1.1,1-1.8,1.4c-0.7,0.4-1.7,0.6-2.9,0.6h-4.2v-11h4.3c1.2,0,2.2,0.2,3,0.6
	c0.8,0.4,1.3,0.9,1.8,1.4C93.9,48.7,94.2,49.3,94.4,49.9z"/>
<polygon class="st0" points="106.8,46.3 116.2,46.3 116.2,78.3 124.7,78.3 124.7,46.3 134.2,46.3 134.2,38.2 106.8,38.2 "/>
<path class="st0" d="M163.5,60.7c-1-1.5-2.3-2.8-3.8-3.7c-1.5-0.9-3.1-1.7-4.8-2.3c-1.6-0.6-3.2-1.1-4.6-1.7
	c-1.3-0.5-2.5-1.1-3.3-1.8c-0.7-0.5-1-1.1-1-1.9c0-1,0.5-1.7,1.5-2.4c1.1-0.7,2.6-1.1,4.6-1.1c1.2,0,2.5,0.2,3.8,0.4
	c1.4,0.3,2.9,0.7,4.3,1.2l0.9,0.3l2.7-6.1l0.5-1.1c0,0-1.2-0.4-2.2-0.7c-0.7-0.2-1.6-0.5-2.7-0.8c-1-0.3-2.2-0.5-3.6-0.8
	c-1.3-0.2-2.8-0.4-4.2-0.4c-2.3,0-4.4,0.3-6.1,1c-1.7,0.7-3.2,1.6-4.4,2.7c-1.2,1.1-2.1,2.4-2.7,3.8c-0.6,1.4-0.9,2.8-0.9,4.3
	c0,2.1,0.5,3.8,1.6,5.2c1,1.3,2.3,2.4,3.8,3.3c1.5,0.8,3.1,1.6,4.8,2.2c1.6,0.6,3.2,1.2,4.5,1.8c1.3,0.6,2.4,1.2,3.3,1.9
	c0.7,0.6,1.1,1.3,1.1,2.3c0,0.8-0.2,1.4-0.7,1.9c-0.6,0.6-1.3,1-2.2,1.4c-0.9,0.4-1.8,0.6-2.7,0.7c-1,0.1-1.7,0.2-2.3,0.2
	c-1.2,0-2.7-0.2-4.3-0.6c-1.6-0.4-3.2-1-4.6-1.8l-0.9-0.5l-3.7,7.3l0.8,0.5c0.6,0.4,1.3,0.7,2.1,1.1c0.8,0.4,1.8,0.7,2.8,1.1
	c1.1,0.3,2.3,0.6,3.6,0.8c1.3,0.2,2.8,0.3,4.4,0.3c2.6,0,5-0.3,6.9-0.8c2-0.6,3.7-1.4,5.1-2.5c1.4-1.1,2.4-2.4,3.1-3.9
	c0.7-1.5,1-3.2,1-5C165.1,64.2,164.6,62.2,163.5,60.7z"/>
<path class="st0" d="M63.6,78.3h8.6l-14.4-35l-2.1-5.1h-3.9l-2.1,5.1l-14.4,35h8.6l2.3-5.8h15.2L63.6,78.3z M49,65.2l4.6-11.7
	l4.7,11.7H49z"/>
</svg>
