<?xml version="1.0" encoding="utf-8"?>
<!-- Generator: Adobe Illustrator 15.0.0, SVG Export Plug-In . SVG Version: 6.00 Build 0)  -->
<!DOCTYPE svg PUBLIC "-//W3C//DTD SVG 1.1//EN" "http://www.w3.org/Graphics/SVG/1.1/DTD/svg11.dtd">
<svg version="1.1" id="Layer_2" xmlns="http://www.w3.org/2000/svg" xmlns:xlink="http://www.w3.org/1999/xlink" x="0px" y="0px"
	 width="54.185px" height="23.666px" viewBox="76.1 94.502 54.185 23.666" enable-background="new 76.1 94.502 54.185 23.666"
	 xml:space="preserve">
<g>
	<g>
		<path fill="#FFFFFF" d="M88.993,102.87l7.297-6.415c0,0-0.618-1.645-3.084-1.924c-2.833-0.32-4.825,2.079-5.049,4.36
			C87.98,100.683,88.554,102.342,88.993,102.87z"/>
		<path fill="#FFFFFF" d="M95.624,97.512l-11.479,10.217c-0.265,0.205-0.354,0.793-0.099,1.026l1.521,1.586
			c0.396,0.332,0.984,0.115,1.265-0.174L97.181,98.71C97.771,97.909,96.445,96.754,95.624,97.512z"/>
		<path fill="#FFFFFF" d="M84.506,109.449"/>
		<path fill="#FFFFFF" d="M83.865,109.074l1.459,1.559c0.303,0.341,0.259,0.682,0.031,0.918c0,0-1.983,2.082-2.911,2.725
			c-0.766,0.529-1.814,0.59-2.309,0.066c-0.515-0.544-0.571-1.461-0.262-2.033c0.595-1.109,2.852-3.182,2.852-3.182
			C83.059,108.785,83.558,108.785,83.865,109.074z"/>
		<path fill="#FFFFFF" d="M79.403,113.38c0.029,0.514,0.245,1.674,1.759,1.602l-5.062,3.187L79.403,113.38z"/>
		<path fill="#FFFFFF" d="M91.587,105.534l6.414-7.295c0,0,1.645,0.616,1.924,3.083c0.32,2.833-2.078,4.824-4.36,5.049
			C93.774,106.547,92.115,105.975,91.587,105.534z"/>
	</g>
	<path id="Fill-1-Copy-2" fill="#FFFFFF" d="M114.893,101.433v-5.599l-9.805,9.805l9.805,9.794v-5.734
		c7,0,11.893,2.234,15.393,7.137C128.893,109.835,124.686,102.835,114.893,101.433"/>
</g>
</svg>
